<?xml version="1.0" encoding="UTF-8"?>
<svg xmlns="http://www.w3.org/2000/svg" xmlns:xlink="http://www.w3.org/1999/xlink" width="85pt" height="85pt" viewBox="0 0 85 85" version="1.1">
<g id="surface1">
<path style=" stroke:none;fill-rule:nonzero;fill:#edac8c;fill-opacity:1;" d="M 44.269531 49.582031 L 72.605469 49.582031 C 73.582031 49.582031 74.375 48.789062 74.375 47.8125 C 74.375 46.835938 73.582031 46.042969 72.605469 46.042969 L 44.269531 46.042969 C 43.292969 46.042969 42.5 46.835938 42.5 47.8125 C 42.5 48.789062 43.292969 49.582031 44.269531 49.582031 Z M 44.269531 49.582031 "/>
<path style=" stroke:none;fill-rule:nonzero;fill:#edac8c;fill-opacity:1;" d="M 85 33.644531 L 85 26.5625 C 85 24.851562 84.488281 23.269531 83.648438 21.914062 C 83.625 21.871094 83.621094 21.820312 83.597656 21.78125 L 72.648438 4.179688 C 71.019531 1.566406 68.210938 0 65.128906 0 L 19.875 0 C 16.792969 0 13.984375 1.566406 12.355469 4.179688 L 1.40625 21.78125 C 1.382812 21.816406 1.382812 21.855469 1.363281 21.894531 C 0.511719 23.25 0 24.84375 0 26.5625 L 0 33.644531 C 0 36.550781 1.425781 39.113281 3.597656 40.730469 C 1.425781 42.34375 0 44.90625 0 47.8125 L 0 54.894531 C 0 57.800781 1.425781 60.363281 3.597656 61.980469 C 1.425781 63.59375 0 66.15625 0 69.0625 L 0 76.144531 C 0 81.027344 3.972656 85 8.855469 85 L 32.074219 85 C 33.054688 85 33.84375 84.207031 33.84375 83.230469 C 33.84375 82.25 33.050781 81.457031 32.074219 81.457031 L 8.855469 81.457031 C 5.925781 81.457031 3.542969 79.074219 3.542969 76.144531 L 3.542969 69.0625 C 3.542969 66.128906 5.925781 63.75 8.855469 63.75 L 38.476562 63.75 C 39.453125 63.75 40.246094 62.957031 40.246094 61.980469 C 40.246094 61 39.453125 60.207031 38.476562 60.207031 L 8.855469 60.207031 C 5.925781 60.207031 3.542969 57.824219 3.542969 54.894531 L 3.542969 47.8125 C 3.542969 44.878906 5.925781 42.5 8.855469 42.5 L 76.144531 42.5 C 79.074219 42.5 81.457031 44.882812 81.457031 47.8125 L 81.457031 54.894531 C 81.457031 55.675781 81.265625 56.457031 80.898438 57.210938 C 80.46875 58.089844 80.832031 59.148438 81.710938 59.582031 C 82.589844 60.011719 83.652344 59.652344 84.078125 58.769531 C 84.691406 57.523438 85 56.222656 85 54.894531 L 85 47.8125 C 85 44.910156 83.574219 42.34375 81.402344 40.730469 C 83.574219 39.109375 85 36.550781 85 33.644531 Z M 15.363281 6.050781 C 16.335938 4.480469 18.023438 3.542969 19.871094 3.542969 L 65.125 3.542969 C 66.972656 3.542969 68.660156 4.480469 69.636719 6.050781 L 76.941406 17.789062 C 76.675781 17.761719 76.417969 17.707031 76.144531 17.707031 L 8.855469 17.707031 C 8.582031 17.707031 8.324219 17.761719 8.058594 17.785156 Z M 81.457031 33.644531 C 81.457031 36.574219 79.074219 38.957031 76.144531 38.957031 L 8.855469 38.957031 C 5.925781 38.957031 3.542969 36.574219 3.542969 33.644531 L 3.542969 26.5625 C 3.542969 23.628906 5.925781 21.25 8.855469 21.25 L 76.144531 21.25 C 79.074219 21.25 81.457031 23.628906 81.457031 26.5625 Z M 81.457031 33.644531 "/>
<path style=" stroke:none;fill-rule:nonzero;fill:#edac8c;fill-opacity:1;" d="M 7.082031 72.605469 C 7.082031 75.53125 9.46875 77.917969 12.394531 77.917969 C 15.324219 77.917969 17.707031 75.53125 17.707031 72.605469 C 17.707031 69.675781 15.324219 67.292969 12.394531 67.292969 C 9.46875 67.292969 7.082031 69.671875 7.082031 72.605469 Z M 14.167969 72.605469 C 14.167969 73.582031 13.375 74.375 12.394531 74.375 C 11.417969 74.375 10.625 73.582031 10.625 72.605469 C 10.625 71.625 11.417969 70.832031 12.394531 70.832031 C 13.375 70.832031 14.167969 71.625 14.167969 72.605469 Z M 14.167969 72.605469 "/>
<path style=" stroke:none;fill-rule:nonzero;fill:#edac8c;fill-opacity:1;" d="M 72.605469 60.207031 C 72.28125 60.207031 71.960938 60.226562 71.644531 60.253906 C 68.695312 55.828125 63.738281 53.125 58.4375 53.125 C 50.191406 53.125 43.390625 59.417969 42.582031 67.453125 C 38.503906 68.242188 35.417969 71.839844 35.417969 76.144531 C 35.417969 81.027344 39.390625 85 44.269531 85 L 72.605469 85 C 79.441406 85 85 79.441406 85 72.605469 C 85 65.769531 79.441406 60.207031 72.605469 60.207031 Z M 72.605469 81.457031 L 44.269531 81.457031 C 41.34375 81.457031 38.957031 79.074219 38.957031 76.144531 C 38.957031 73.21875 41.34375 70.832031 44.269531 70.832031 C 45.25 70.832031 46.042969 70.039062 46.042969 69.0625 C 46.042969 62.226562 51.601562 56.667969 58.4375 56.667969 C 62.863281 56.667969 66.992188 59.105469 69.199219 63.035156 C 69.566406 63.691406 70.296875 64.035156 71.054688 63.910156 C 71.558594 63.820312 72.074219 63.75 72.605469 63.75 C 77.484375 63.75 81.457031 67.722656 81.457031 72.605469 C 81.457031 77.484375 77.484375 81.457031 72.605469 81.457031 Z M 72.605469 81.457031 "/>
<path style=" stroke:none;fill-rule:nonzero;fill:#edac8c;fill-opacity:1;" d="M 72.605469 24.792969 L 44.269531 24.792969 C 43.292969 24.792969 42.5 25.585938 42.5 26.5625 C 42.5 27.539062 43.292969 28.332031 44.269531 28.332031 L 72.605469 28.332031 C 73.582031 28.332031 74.375 27.539062 74.375 26.5625 C 74.375 25.585938 73.582031 24.792969 72.605469 24.792969 Z M 72.605469 24.792969 "/>
<path style=" stroke:none;fill-rule:nonzero;fill:#edac8c;fill-opacity:1;" d="M 72.605469 31.875 L 44.269531 31.875 C 43.292969 31.875 42.5 32.667969 42.5 33.644531 C 42.5 34.625 43.292969 35.417969 44.269531 35.417969 L 72.605469 35.417969 C 73.582031 35.417969 74.375 34.625 74.375 33.644531 C 74.375 32.667969 73.582031 31.875 72.605469 31.875 Z M 72.605469 31.875 "/>
<path style=" stroke:none;fill-rule:nonzero;fill:#edac8c;fill-opacity:1;" d="M 12.394531 24.792969 C 9.46875 24.792969 7.082031 27.171875 7.082031 30.105469 C 7.082031 33.035156 9.46875 35.417969 12.394531 35.417969 C 15.324219 35.417969 17.707031 33.03125 17.707031 30.105469 C 17.707031 27.175781 15.324219 24.792969 12.394531 24.792969 Z M 12.394531 31.875 C 11.417969 31.875 10.625 31.082031 10.625 30.105469 C 10.625 29.125 11.417969 28.332031 12.394531 28.332031 C 13.375 28.332031 14.167969 29.125 14.167969 30.105469 C 14.167969 31.082031 13.375 31.875 12.394531 31.875 Z M 12.394531 31.875 "/>
<path style=" stroke:none;fill-rule:nonzero;fill:#edac8c;fill-opacity:1;" d="M 7.082031 51.355469 C 7.082031 54.28125 9.46875 56.667969 12.394531 56.667969 C 15.324219 56.667969 17.707031 54.28125 17.707031 51.355469 C 17.707031 48.425781 15.324219 46.042969 12.394531 46.042969 C 9.46875 46.042969 7.082031 48.421875 7.082031 51.355469 Z M 14.167969 51.355469 C 14.167969 52.332031 13.375 53.125 12.394531 53.125 C 11.417969 53.125 10.625 52.332031 10.625 51.355469 C 10.625 50.375 11.417969 49.582031 12.394531 49.582031 C 13.375 49.582031 14.167969 50.375 14.167969 51.355469 Z M 14.167969 51.355469 "/>
</g>
</svg>
