<?xml version="1.0" encoding="UTF-8"?>
<svg xmlns="http://www.w3.org/2000/svg" xmlns:xlink="http://www.w3.org/1999/xlink" width="85pt" height="85pt" viewBox="0 0 85 85" version="1.1">
<g id="surface1">
<path style=" stroke:none;fill-rule:nonzero;fill:#edac8c;fill-opacity:1;" d="M 83.339844 1.703125 L 1.660156 1.703125 C 0.742188 1.703125 0 2.445312 0 3.363281 L 0 20.4375 C 0 21.355469 0.742188 22.097656 1.660156 22.097656 L 83.339844 22.097656 C 84.257812 22.097656 85 21.355469 85 20.4375 L 85 3.363281 C 85 2.445312 84.257812 1.703125 83.339844 1.703125 Z M 81.679688 18.777344 L 3.320312 18.777344 L 3.320312 5.023438 L 81.679688 5.023438 Z M 81.679688 18.777344 "/>
<path style=" stroke:none;fill-rule:nonzero;fill:#edac8c;fill-opacity:1;" d="M 77.929688 15.007812 L 76.574219 13.652344 C 76.941406 12.917969 77.140625 12.105469 77.140625 11.261719 C 77.140625 9.84375 76.589844 8.511719 75.585938 7.511719 C 73.519531 5.445312 70.15625 5.445312 68.085938 7.511719 C 67.085938 8.511719 66.53125 9.84375 66.53125 11.261719 C 66.53125 12.679688 67.085938 14.011719 68.085938 15.011719 C 69.089844 16.015625 70.421875 16.566406 71.835938 16.566406 C 72.679688 16.566406 73.492188 16.367188 74.226562 16 L 75.582031 17.355469 C 75.90625 17.679688 76.332031 17.839844 76.753906 17.839844 C 77.179688 17.839844 77.605469 17.679688 77.929688 17.355469 C 78.578125 16.707031 78.578125 15.65625 77.929688 15.007812 Z M 73.238281 12.664062 C 72.863281 13.039062 72.367188 13.246094 71.835938 13.246094 C 71.308594 13.246094 70.808594 13.039062 70.433594 12.664062 C 70.058594 12.289062 69.851562 11.792969 69.851562 11.261719 C 69.851562 10.734375 70.058594 10.234375 70.433594 9.859375 C 70.820312 9.472656 71.328125 9.28125 71.835938 9.28125 C 72.34375 9.28125 72.851562 9.472656 73.238281 9.859375 C 73.613281 10.234375 73.820312 10.734375 73.820312 11.261719 C 73.820312 11.792969 73.613281 12.289062 73.238281 12.664062 Z M 73.238281 12.664062 "/>
<path style=" stroke:none;fill-rule:nonzero;fill:#edac8c;fill-opacity:1;" d="M 59.488281 14.582031 C 59.46875 14.476562 59.4375 14.371094 59.394531 14.269531 C 59.355469 14.171875 59.300781 14.074219 59.242188 13.984375 C 59.183594 13.894531 59.113281 13.808594 59.035156 13.730469 C 58.960938 13.65625 58.875 13.585938 58.785156 13.527344 C 58.695312 13.464844 58.597656 13.414062 58.496094 13.371094 C 58.398438 13.332031 58.292969 13.300781 58.1875 13.277344 C 57.972656 13.234375 57.75 13.234375 57.539062 13.277344 C 57.429688 13.300781 57.328125 13.332031 57.226562 13.371094 C 57.128906 13.414062 57.03125 13.464844 56.941406 13.527344 C 56.851562 13.585938 56.765625 13.65625 56.6875 13.730469 C 56.609375 13.808594 56.542969 13.894531 56.480469 13.984375 C 56.421875 14.074219 56.371094 14.171875 56.328125 14.269531 C 56.289062 14.371094 56.257812 14.476562 56.234375 14.582031 C 56.210938 14.6875 56.203125 14.796875 56.203125 14.90625 C 56.203125 15.015625 56.210938 15.121094 56.234375 15.230469 C 56.257812 15.335938 56.289062 15.441406 56.328125 15.539062 C 56.371094 15.640625 56.421875 15.738281 56.480469 15.828125 C 56.542969 15.917969 56.609375 16.003906 56.6875 16.082031 C 56.765625 16.15625 56.851562 16.226562 56.941406 16.285156 C 57.03125 16.347656 57.128906 16.398438 57.226562 16.4375 C 57.328125 16.480469 57.433594 16.511719 57.539062 16.535156 C 57.644531 16.554688 57.753906 16.566406 57.863281 16.566406 C 57.972656 16.566406 58.082031 16.554688 58.1875 16.535156 C 58.292969 16.511719 58.398438 16.480469 58.496094 16.4375 C 58.597656 16.398438 58.695312 16.347656 58.785156 16.285156 C 58.875 16.226562 58.960938 16.15625 59.035156 16.082031 C 59.34375 15.769531 59.523438 15.34375 59.523438 14.90625 C 59.523438 14.796875 59.511719 14.6875 59.488281 14.582031 Z M 59.488281 14.582031 "/>
<path style=" stroke:none;fill-rule:nonzero;fill:#edac8c;fill-opacity:1;" d="M 51.570312 13.246094 L 17.066406 13.246094 C 16.148438 13.246094 15.40625 13.988281 15.40625 14.90625 C 15.40625 15.824219 16.148438 16.566406 17.066406 16.566406 L 51.570312 16.566406 C 52.484375 16.566406 53.230469 15.824219 53.230469 14.90625 C 53.230469 13.988281 52.484375 13.246094 51.570312 13.246094 Z M 51.570312 13.246094 "/>
<path style=" stroke:none;fill-rule:nonzero;fill:#edac8c;fill-opacity:1;" d="M 52.265625 24.464844 L 1.855469 24.464844 C 0.9375 24.464844 0.195312 25.207031 0.195312 26.125 L 0.195312 58.863281 C 0.195312 59.78125 0.9375 60.523438 1.855469 60.523438 L 52.265625 60.523438 C 53.183594 60.523438 53.925781 59.78125 53.925781 58.863281 L 53.925781 26.125 C 53.925781 25.207031 53.183594 24.464844 52.265625 24.464844 Z M 20.222656 57.203125 L 6.128906 57.203125 L 15.621094 46.214844 L 22.492188 54.171875 Z M 24.371094 57.203125 L 27.46875 53.074219 L 35.515625 53.074219 C 36.433594 53.074219 37.175781 52.332031 37.175781 51.414062 C 37.175781 50.5 36.433594 49.753906 35.515625 49.753906 L 29.957031 49.753906 L 31.121094 48.203125 L 41.546875 48.203125 L 48.296875 57.203125 Z M 33.613281 44.882812 L 36.335938 41.253906 L 39.054688 44.882812 Z M 50.605469 54.746094 L 37.664062 37.488281 C 37.347656 37.070312 36.855469 36.824219 36.335938 36.824219 C 35.8125 36.824219 35.320312 37.070312 35.007812 37.488281 L 24.53125 51.453125 L 16.875 42.589844 C 16.5625 42.222656 16.101562 42.015625 15.621094 42.015625 C 15.136719 42.015625 14.679688 42.222656 14.363281 42.589844 L 3.515625 55.148438 L 3.515625 27.785156 L 50.605469 27.785156 Z M 50.605469 54.746094 "/>
<path style=" stroke:none;fill-rule:nonzero;fill:#edac8c;fill-opacity:1;" d="M 22.851562 29.691406 C 19.617188 29.691406 16.984375 32.324219 16.984375 35.558594 C 16.984375 38.796875 19.617188 41.429688 22.851562 41.429688 C 26.089844 41.429688 28.722656 38.796875 28.722656 35.558594 C 28.722656 32.324219 26.089844 29.691406 22.851562 29.691406 Z M 22.851562 38.109375 C 21.445312 38.109375 20.304688 36.964844 20.304688 35.558594 C 20.304688 34.15625 21.445312 33.011719 22.851562 33.011719 C 24.257812 33.011719 25.402344 34.15625 25.402344 35.558594 C 25.402344 36.964844 24.257812 38.109375 22.851562 38.109375 Z M 22.851562 38.109375 "/>
<path style=" stroke:none;fill-rule:nonzero;fill:#edac8c;fill-opacity:1;" d="M 83.339844 24.464844 L 57.824219 24.464844 C 56.90625 24.464844 56.164062 25.207031 56.164062 26.125 L 56.164062 58.863281 C 56.164062 59.78125 56.90625 60.523438 57.824219 60.523438 L 83.339844 60.523438 C 84.257812 60.523438 85 59.78125 85 58.863281 L 85 26.125 C 85 25.207031 84.257812 24.464844 83.339844 24.464844 Z M 81.679688 57.203125 L 59.484375 57.203125 L 59.484375 27.785156 L 81.679688 27.785156 Z M 81.679688 57.203125 "/>
<path style=" stroke:none;fill-rule:nonzero;fill:#edac8c;fill-opacity:1;" d="M 77.8125 30.519531 L 63.351562 30.519531 C 62.433594 30.519531 61.691406 31.261719 61.691406 32.179688 C 61.691406 33.097656 62.433594 33.839844 63.351562 33.839844 L 77.8125 33.839844 C 78.730469 33.839844 79.472656 33.097656 79.472656 32.179688 C 79.472656 31.261719 78.730469 30.519531 77.8125 30.519531 Z M 77.8125 30.519531 "/>
<path style=" stroke:none;fill-rule:nonzero;fill:#edac8c;fill-opacity:1;" d="M 77.8125 37.183594 L 63.351562 37.183594 C 62.433594 37.183594 61.691406 37.925781 61.691406 38.84375 C 61.691406 39.757812 62.433594 40.503906 63.351562 40.503906 L 77.8125 40.503906 C 78.730469 40.503906 79.472656 39.757812 79.472656 38.84375 C 79.472656 37.925781 78.730469 37.183594 77.8125 37.183594 Z M 77.8125 37.183594 "/>
<path style=" stroke:none;fill-rule:nonzero;fill:#edac8c;fill-opacity:1;" d="M 77.8125 43.84375 L 63.351562 43.84375 C 62.433594 43.84375 61.691406 44.589844 61.691406 45.503906 C 61.691406 46.421875 62.433594 47.164062 63.351562 47.164062 L 77.8125 47.164062 C 78.730469 47.164062 79.472656 46.421875 79.472656 45.503906 C 79.472656 44.589844 78.730469 43.84375 77.8125 43.84375 Z M 77.8125 43.84375 "/>
<path style=" stroke:none;fill-rule:nonzero;fill:#edac8c;fill-opacity:1;" d="M 64.976562 51.84375 C 64.957031 51.738281 64.925781 51.632812 64.882812 51.53125 C 64.84375 51.433594 64.789062 51.335938 64.730469 51.246094 C 64.667969 51.15625 64.601562 51.070312 64.523438 50.992188 C 64.136719 50.609375 63.566406 50.429688 63.027344 50.539062 C 62.917969 50.5625 62.816406 50.59375 62.714844 50.632812 C 62.617188 50.675781 62.519531 50.726562 62.429688 50.789062 C 62.339844 50.847656 62.253906 50.917969 62.175781 50.992188 C 62.101562 51.070312 62.03125 51.15625 61.96875 51.246094 C 61.910156 51.335938 61.859375 51.433594 61.816406 51.53125 C 61.777344 51.632812 61.746094 51.738281 61.722656 51.84375 C 61.703125 51.949219 61.691406 52.058594 61.691406 52.167969 C 61.691406 52.277344 61.703125 52.382812 61.722656 52.492188 C 61.746094 52.597656 61.777344 52.703125 61.816406 52.804688 C 61.859375 52.902344 61.910156 53 61.96875 53.089844 C 62.03125 53.179688 62.101562 53.265625 62.175781 53.34375 C 62.253906 53.417969 62.339844 53.488281 62.429688 53.546875 C 62.519531 53.609375 62.617188 53.660156 62.714844 53.699219 C 62.816406 53.742188 62.917969 53.773438 63.027344 53.796875 C 63.132812 53.816406 63.242188 53.828125 63.351562 53.828125 C 63.789062 53.828125 64.214844 53.652344 64.523438 53.34375 C 64.601562 53.265625 64.667969 53.179688 64.730469 53.089844 C 64.789062 53 64.84375 52.902344 64.882812 52.800781 C 64.925781 52.703125 64.957031 52.597656 64.976562 52.492188 C 65 52.382812 65.011719 52.277344 65.011719 52.167969 C 65.011719 52.058594 65 51.949219 64.976562 51.84375 Z M 64.976562 51.84375 "/>
<path style=" stroke:none;fill-rule:nonzero;fill:#edac8c;fill-opacity:1;" d="M 77.8125 50.507812 L 69.644531 50.507812 C 68.726562 50.507812 67.984375 51.25 67.984375 52.167969 C 67.984375 53.085938 68.726562 53.828125 69.644531 53.828125 L 77.8125 53.828125 C 78.730469 53.828125 79.472656 53.085938 79.472656 52.167969 C 79.472656 51.25 78.730469 50.507812 77.8125 50.507812 Z M 77.8125 50.507812 "/>
<path style=" stroke:none;fill-rule:nonzero;fill:#edac8c;fill-opacity:1;" d="M 27.371094 62.878906 L 1.855469 62.878906 C 0.9375 62.878906 0.195312 63.621094 0.195312 64.539062 L 0.195312 81.636719 C 0.195312 82.554688 0.9375 83.296875 1.855469 83.296875 L 27.371094 83.296875 C 28.289062 83.296875 29.03125 82.554688 29.03125 81.636719 L 29.03125 64.539062 C 29.03125 63.621094 28.289062 62.878906 27.371094 62.878906 Z M 25.710938 79.976562 L 3.515625 79.976562 L 3.515625 66.199219 L 25.710938 66.199219 Z M 25.710938 79.976562 "/>
<path style=" stroke:none;fill-rule:nonzero;fill:#edac8c;fill-opacity:1;" d="M 83.339844 62.878906 L 33.15625 62.878906 C 32.242188 62.878906 31.496094 63.621094 31.496094 64.539062 L 31.496094 81.636719 C 31.496094 82.554688 32.242188 83.296875 33.15625 83.296875 L 83.339844 83.296875 C 84.257812 83.296875 85 82.554688 85 81.636719 L 85 64.539062 C 85 63.621094 84.257812 62.878906 83.339844 62.878906 Z M 81.679688 79.976562 L 34.816406 79.976562 L 34.816406 66.199219 L 81.679688 66.199219 Z M 81.679688 79.976562 "/>
<path style=" stroke:none;fill-rule:nonzero;fill:#edac8c;fill-opacity:1;" d="M 42.378906 72.765625 C 42.359375 72.660156 42.328125 72.554688 42.285156 72.453125 C 42.246094 72.351562 42.191406 72.257812 42.132812 72.167969 C 42.074219 72.074219 42.003906 71.992188 41.925781 71.914062 C 41.851562 71.839844 41.765625 71.769531 41.675781 71.707031 C 41.585938 71.648438 41.488281 71.597656 41.386719 71.554688 C 41.289062 71.515625 41.183594 71.480469 41.078125 71.460938 C 40.863281 71.417969 40.640625 71.417969 40.429688 71.460938 C 40.324219 71.480469 40.21875 71.515625 40.117188 71.554688 C 40.019531 71.597656 39.921875 71.648438 39.832031 71.707031 C 39.742188 71.769531 39.65625 71.839844 39.578125 71.914062 C 39.503906 71.992188 39.433594 72.074219 39.371094 72.167969 C 39.3125 72.257812 39.261719 72.351562 39.21875 72.453125 C 39.179688 72.554688 39.148438 72.660156 39.125 72.765625 C 39.101562 72.871094 39.09375 72.980469 39.09375 73.089844 C 39.09375 73.195312 39.101562 73.304688 39.125 73.414062 C 39.148438 73.519531 39.179688 73.621094 39.21875 73.722656 C 39.261719 73.824219 39.3125 73.921875 39.371094 74.007812 C 39.433594 74.101562 39.503906 74.1875 39.578125 74.261719 C 39.886719 74.570312 40.316406 74.75 40.753906 74.75 C 40.863281 74.75 40.972656 74.738281 41.078125 74.71875 C 41.183594 74.695312 41.289062 74.664062 41.386719 74.621094 C 41.488281 74.578125 41.585938 74.53125 41.675781 74.46875 C 41.765625 74.410156 41.851562 74.339844 41.925781 74.261719 C 42.003906 74.1875 42.074219 74.101562 42.132812 74.011719 C 42.191406 73.921875 42.246094 73.824219 42.285156 73.722656 C 42.328125 73.621094 42.359375 73.519531 42.378906 73.414062 C 42.402344 73.304688 42.414062 73.195312 42.414062 73.089844 C 42.414062 72.980469 42.402344 72.871094 42.378906 72.765625 Z M 42.378906 72.765625 "/>
<path style=" stroke:none;fill-rule:nonzero;fill:#edac8c;fill-opacity:1;" d="M 74.925781 71.429688 L 47.046875 71.429688 C 46.128906 71.429688 45.386719 72.171875 45.386719 73.089844 C 45.386719 74.003906 46.128906 74.75 47.046875 74.75 L 74.925781 74.75 C 75.84375 74.75 76.585938 74.003906 76.585938 73.089844 C 76.585938 72.171875 75.84375 71.429688 74.925781 71.429688 Z M 74.925781 71.429688 "/>
</g>
</svg>
