<?xml version="1.0" encoding="UTF-8"?>
<svg xmlns="http://www.w3.org/2000/svg" xmlns:xlink="http://www.w3.org/1999/xlink" width="85pt" height="85pt" viewBox="0 0 85 85" version="1.1">
<g id="surface1">
<path style=" stroke:none;fill-rule:nonzero;fill:#edac8c;fill-opacity:1;" d="M 0 5.5625 L 0 79.4375 L 85 79.4375 L 85 5.5625 Z M 80.019531 25.371094 L 34.636719 25.371094 L 28.566406 10.542969 L 80.019531 10.542969 Z M 4.980469 74.457031 L 4.980469 10.542969 L 23.1875 10.542969 L 31.292969 30.351562 L 80.019531 30.351562 L 80.019531 74.457031 Z M 4.980469 74.457031 "/>
<path style=" stroke:none;fill-rule:nonzero;fill:#edac8c;fill-opacity:1;" d="M 34.746094 57.558594 C 34.746094 60.160156 32.628906 62.277344 30.027344 62.277344 C 27.425781 62.277344 25.308594 60.160156 25.308594 57.558594 L 25.308594 38.203125 L 20.328125 38.203125 L 20.328125 57.558594 C 20.328125 62.90625 24.679688 67.257812 30.027344 67.257812 C 35.375 67.257812 39.726562 62.90625 39.726562 57.558594 L 39.726562 38.203125 L 34.746094 38.203125 Z M 34.746094 57.558594 "/>
<path style=" stroke:none;fill-rule:nonzero;fill:#edac8c;fill-opacity:1;" d="M 61.492188 38.070312 L 54.710938 48.242188 L 47.929688 38.070312 L 43.789062 40.832031 L 51.71875 52.730469 L 43.789062 64.625 L 47.929688 67.390625 L 54.710938 57.21875 L 61.492188 67.390625 L 65.636719 64.625 L 57.703125 52.730469 L 65.636719 40.832031 Z M 61.492188 38.070312 "/>
<path style=" stroke:none;fill-rule:nonzero;fill:#edac8c;fill-opacity:1;" d="M 70.125 15.503906 L 75.105469 15.503906 L 75.105469 20.484375 L 70.125 20.484375 Z M 70.125 15.503906 "/>
<path style=" stroke:none;fill-rule:nonzero;fill:#edac8c;fill-opacity:1;" d="M 60.164062 15.503906 L 65.144531 15.503906 L 65.144531 20.484375 L 60.164062 20.484375 Z M 60.164062 15.503906 "/>
<path style=" stroke:none;fill-rule:nonzero;fill:#edac8c;fill-opacity:1;" d="M 50.203125 15.503906 L 55.183594 15.503906 L 55.183594 20.484375 L 50.203125 20.484375 Z M 50.203125 15.503906 "/>
</g>
</svg>
